HIERARCHY
ROOT Hips
{
  OFFSET 47.3597 100.569 10.7306
  CHANNELS 6 Xposition Yposition Zposition Zrotation Xrotation Yrotation
  JOINT spine
  {
    OFFSET 0 8.81705 0.507024
    CHANNELS 3 Zrotation Xrotation Yrotation
    JOINT spine1
    {
      OFFSET 0 10.7766 0
      CHANNELS 3 Zrotation Xrotation Yrotation
      JOINT spine2
      {
        OFFSET 0 10.3259 0
        CHANNELS 3 Zrotation Xrotation Yrotation
        JOINT Neck
        {
          OFFSET 0 26.511 1.26395
          CHANNELS 3 Zrotation Xrotation Yrotation
          JOINT Head
          {
            OFFSET 0 8.00966 0
            CHANNELS 3 Zrotation Xrotation Yrotation
            End Site
            {
              OFFSET 0 19.3879 -6.39386
            }
          }
        }
        JOINT RightShoulder
        {
          OFFSET -4.34795 11.1512 -0.605422
          CHANNELS 3 Zrotation Xrotation Yrotation
          JOINT RightArm
          {
            OFFSET 0 14.6258 0
            CHANNELS 3 Zrotation Xrotation Yrotation
            JOINT RightArmRoll
            {
              OFFSET 0 7.3834 0
              CHANNELS 3 Zrotation Xrotation Yrotation
              JOINT RightForeArm
              {
                OFFSET 0 21.5052 0
                CHANNELS 3 Zrotation Xrotation Yrotation
                JOINT RightForeArmRoll
                {
                  OFFSET 0 8.28532 0
                  CHANNELS 3 Zrotation Xrotation Yrotation
                  JOINT RightHand
                  {
                    OFFSET 0 16.6268 0
                    CHANNELS 3 Zrotation Xrotation Yrotation
                    End Site
                    {
                      OFFSET 0 0 0
                    }
                  }
                }
              }
            }
          }
        }
        JOINT LeftShoulder
        {
          OFFSET 4.34795 11.1512 -0.605422
          CHANNELS 3 Zrotation Xrotation Yrotation
          JOINT LeftArm
          {
            OFFSET 0 14.6258 0
            CHANNELS 3 Zrotation Xrotation Yrotation
            JOINT LeftArmRoll
            {
              OFFSET 0 7.3834 0
              CHANNELS 3 Zrotation Xrotation Yrotation
              JOINT LeftForeArm
              {
                OFFSET 0 21.5052 0
                CHANNELS 3 Zrotation Xrotation Yrotation
                JOINT LeftForeArmRoll
                {
                  OFFSET 0 8.28532 0
                  CHANNELS 3 Zrotation Xrotation Yrotation
                  JOINT LeftHand
                  {
                    OFFSET 0 16.6268 0
                    CHANNELS 3 Zrotation Xrotation Yrotation
                    End Site
                    {
                      OFFSET 0 0 0
                    }
                  }
                }
              }
            }
          }
        }
      }
    }
  }
  JOINT RightUpLeg
  {
    OFFSET -7.8151 -1.43309 -1.20217
    CHANNELS 3 Zrotation Xrotation Yrotation
    JOINT RightUpLegRoll
    {
      OFFSET 0 19.4959 0
      CHANNELS 3 Zrotation Xrotation Yrotation
      JOINT RightLeg
      {
        OFFSET 0 -24.1427 0
        CHANNELS 3 Zrotation Xrotation Yrotation
        JOINT RightLegRoll
        {
          OFFSET 0 24.2217 0
          CHANNELS 3 Zrotation Xrotation Yrotation
          JOINT RightFoot
          {
            OFFSET 0 20.1605 0
            CHANNELS 3 Zrotation Xrotation Yrotation
            JOINT RightToeBase
            {
              OFFSET 0 16.8532 0
              CHANNELS 3 Zrotation Xrotation Yrotation
              End Site
              {
                OFFSET 0.00714343 8.16186 -0.940781
              }
            }
          }
        }
      }
    }
  }
  JOINT LeftUpLeg
  {
    OFFSET 7.8151 -1.43309 -1.20217
    CHANNELS 3 Zrotation Xrotation Yrotation
    JOINT LeftUpLegRoll
    {
      OFFSET 0 19.496 0
      CHANNELS 3 Zrotation Xrotation Yrotation
      JOINT LeftLeg
      {
        OFFSET 0 24.1426 0
        CHANNELS 3 Zrotation Xrotation Yrotation
        JOINT LeftLegRoll
        {
          OFFSET 0 24.4456 0
          CHANNELS 3 Zrotation Xrotation Yrotation
          JOINT LeftFoot
          {
            OFFSET 0 19.9366 0
            CHANNELS 3 Zrotation Xrotation Yrotation
            JOINT LeftToeBase
            {
              OFFSET 0 16.8532 0
              CHANNELS 3 Zrotation Xrotation Yrotation
              End Site
              {
                OFFSET -0.0320138 8.16187 -0.94078
              }
            }
          }
        }
      }
    }
  }
}
MOTION
Frames: 10
Frame Time: 0.00208333
50.2891 100.621 11.7401 -0.350255 -1.73276 -0.603624 0.311688 -2.07371 -0.159206 0.615859 -0.168532 -0.334798 0.620159 1.47647 -0.345299 -4.01217 22.309 3.39585 -2.11096 -5.95642 1.76713 68.482 -0.367963 -1.38496 104.3 14.7266 11.0277 -2.9694e-006 1.66074e-006 1.10829e-005 16.2038 2.27077 -0.375174 1.10418e-006 2.8541e-006 -2.99998 8.02904 -4.95145 0.697702 -64.5387 -3.57708 2.6965 -108.597 12.0411 3.7074 -3.74423e-006 -6.75786e-007 1.32066e-006 -17.7486 16.195 2.73752 1.96417e-006 -6.10315e-006 2.99999 -8.02909 -4.95141 -0.697703 178.583 -0.412292 -0.335195 180 7.01552e-015 178.947 177.912 4.81482 179.785 -1.49533e-006 -1.62503e-006 0.0395764 -18.3689 67.6422 19.233 8.13692 25.2389 -3.49343 -177.258 -0.867238 2.33261 4.54188e-006 -4.6773e-006 -1.11067 -2.12707 -7.71992 0.166419 -2.32599e-006 -3.99697e-006 -0.133819 19.5587 69.0983 -20.4837 -8.15581 25.6707 2.89471 
50.2883 100.621 11.7383 -0.350843 -1.72887 -0.62342 0.311929 -2.07542 -0.159725 0.616355 -0.170307 -0.337454 0.62067 1.4747 -0.347947 -4.00115 22.3187 3.40682 -2.14794 -5.94641 1.77557 68.4781 -0.355623 -1.37835 104.291 14.6856 11.0275 -2.9694e-006 1.66074e-006 1.10829e-005 16.2057 2.37127 -0.39252 1.10418e-006 2.8541e-006 -2.99998 8.02904 -4.95145 0.697702 -64.5528 -3.57574 2.69686 -108.597 12.0656 3.65921 -3.74423e-006 -6.75786e-007 1.32066e-006 -17.7194 16.1094 2.72051 1.96417e-006 -6.10315e-006 2.99999 -8.02909 -4.95141 -0.697703 178.579 -0.403109 -0.332836 180 7.01552e-015 178.947 177.91 4.81964 179.785 -1.49533e-006 -1.62503e-006 0.0395764 -18.3676 67.6406 19.2315 8.13692 25.2389 -3.49343 -177.265 -0.868712 2.34269 4.54188e-006 -4.6773e-006 -1.11067 -2.11856 -7.71854 0.167601 -2.32599e-006 -3.99697e-006 -0.133783 19.562 69.1019 -20.4873 -8.15579 25.6703 2.89454 
50.2879 100.62 11.7446 -0.351187 -1.72496 -0.642988 0.312117 -2.07722 -0.160197 0.616742 -0.172199 -0.340088 0.621072 1.47281 -0.350569 -3.98913 22.329 3.41761 -2.1866 -5.9364 1.78387 68.4734 -0.342847 -1.37143 104.284 14.6455 11.0292 -2.9694e-006 1.66074e-006 1.10829e-005 16.2063 2.46853 -0.409349 1.10418e-006 2.8541e-006 -2.99998 8.02904 -4.95145 0.697702 -64.5674 -3.57436 2.69723 -108.596 12.0898 3.61164 -3.74423e-006 -6.75786e-007 1.32066e-006 -17.6908 16.0247 2.70368 1.96417e-006 -6.10315e-006 2.99999 -8.02909 -4.95141 -0.697703 178.576 -0.394017 -0.330315 180 7.01552e-015 178.947 177.907 4.82444 179.785 -1.49533e-006 -1.62503e-006 0.0395764 -18.3663 67.639 19.2301 8.13692 25.2389 -3.49343 -177.273 -0.870442 2.35326 4.54188e-006 -4.6773e-006 -1.11067 -2.10972 -7.71661 0.168843 -2.32599e-006 -3.99697e-006 -0.133729 19.5652 69.1052 -20.4907 -8.15576 25.6699 2.89439 
50.2864 100.622 11.7476 -0.35136 -1.72103 -0.662396 0.312268 -2.07908 -0.160634 0.617054 -0.174173 -0.342705 0.621398 1.47083 -0.353174 -3.97643 22.3396 3.42828 -2.22643 -5.92638 1.79207 68.4681 -0.329766 -1.36431 104.277 14.6062 11.0321 -2.9694e-006 1.66074e-006 1.10829e-005 16.2059 2.56351 -0.425817 1.10418e-006 2.8541e-006 -2.99998 8.02904 -4.95145 0.697702 -64.5824 -3.57293 2.6976 -108.595 12.1138 3.56451 -3.74423e-006 -6.75786e-007 1.32066e-006 -17.6629 15.9407 2.68698 1.96417e-006 -6.10315e-006 2.99999 -8.02909 -4.95141 -0.697703 178.572 -0.384989 -0.327682 180 7.01552e-015 178.947 177.905 4.8292 179.785 -1.49533e-006 -1.62503e-006 0.0395764 -18.365 67.6374 19.2287 8.13692 25.2389 -3.49343 -177.282 -0.872351 2.36418 4.54188e-006 -4.6773e-006 -1.11067 -2.10064 -7.71428 0.170128 -2.32599e-006 -3.99697e-006 -0.133662 19.5683 69.1083 -20.4939 -8.15573 25.6696 2.89423 
50.28 100.619 11.7496 -0.351433 -1.71709 -0.681713 0.312398 -2.08098 -0.161053 0.617322 -0.176194 -0.345313 0.621681 1.46881 -0.355768 -3.96334 22.3505 3.43888 -2.26693 -5.91636 1.80021 68.4626 -0.31651 -1.35706 104.272 14.5672 11.0357 -2.9694e-006 1.66074e-006 1.10829e-005 16.2051 2.65719 -0.44208 1.10418e-006 2.8541e-006 -2.99998 8.02904 -4.95145 0.697702 -64.5975 -3.57149 2.69797 -108.593 12.1376 3.51763 -3.74423e-006 -6.75786e-007 1.32066e-006 -17.6353 15.857 2.67038 1.96417e-006 -6.10315e-006 2.99999 -8.02909 -4.95141 -0.697703 178.568 -0.375998 -0.324983 180 7.01552e-015 178.947 177.902 4.83394 179.785 -1.49533e-006 -1.62503e-006 0.0395764 -18.3637 67.6358 19.2274 8.13692 25.2389 -3.49343 -177.29 -0.874363 2.37529 4.54188e-006 -4.6773e-006 -1.11067 -2.09143 -7.71173 0.171436 -2.32599e-006 -3.99697e-006 -0.133588 19.5712 69.1113 -20.4971 -8.15571 25.6692 2.89408 
50.3039 100.619 11.7257 -0.351479 -1.71316 -0.701007 0.312522 -2.08289 -0.161467 0.61758 -0.178226 -0.347918 0.621952 1.46678 -0.35836 -3.95015 22.3614 3.44947 -2.30761 -5.90634 1.80834 68.4569 -0.30321 -1.34979 104.266 14.5284 11.0396 -2.9694e-006 1.66074e-006 1.10829e-005 16.2041 2.75055 -0.458294 1.10418e-006 2.8541e-006 -2.99998 8.02904 -4.95145 0.697702 -64.6126 -3.57004 2.69834 -108.591 12.1613 3.4708 -3.74423e-006 -6.75786e-007 1.32066e-006 -17.6077 15.7735 2.6538 1.96417e-006 -6.10315e-006 2.99999 -8.02909 -4.95141 -0.697703 178.564 -0.367016 -0.322269 180 7.01552e-015 178.947 177.899 4.83868 179.785 -1.49533e-006 -1.62503e-006 0.0395764 -18.3625 67.6342 19.226 8.13692 25.2389 -3.49343 -177.299 -0.8764 2.38646 4.54188e-006 -4.6773e-006 -1.11067 -2.08218 -7.70912 0.172751 -2.32599e-006 -3.99697e-006 -0.133512 19.5742 69.1144 -20.5002 -8.15568 25.6688 2.89393 
50.3105 100.626 11.7334 -0.351572 -1.70922 -0.720346 0.312657 -2.08477 -0.161891 0.617859 -0.180235 -0.350529 0.622245 1.46477 -0.360957 -3.93716 22.3722 3.4601 -2.34795 -5.89632 1.8165 68.4515 -0.289998 -1.34257 104.26 14.4893 11.043 -2.9694e-006 1.66074e-006 1.10829e-005 16.2035 2.84455 -0.474617 1.10418e-006 2.8541e-006 -2.99998 8.02904 -4.95145 0.697702 -64.6277 -3.5686 2.69872 -108.589 12.1852 3.42384 -3.74423e-006 -6.75786e-007 1.32066e-006 -17.5802 15.6898 2.63722 1.96417e-006 -6.10315e-006 2.99999 -8.02909 -4.95141 -0.697703 178.56 -0.358015 -0.319587 180 7.01552e-015 178.947 177.897 4.84343 179.785 -1.49533e-006 -1.62503e-006 0.0395764 -18.3612 67.6326 19.2246 8.13692 25.2389 -3.49343 -177.307 -0.878386 2.39752 4.54188e-006 -4.6773e-006 -1.11067 -2.073 -7.70663 0.174053 -2.32599e-006 -3.99697e-006 -0.13344 19.5772 69.1174 -20.5034 -8.15565 25.6684 2.89378 
50.3021 100.624 11.7455 -0.351782 -1.7053 -0.739799 0.312819 -2.08662 -0.162338 0.618192 -0.182185 -0.35315 0.622592 1.46282 -0.363566 -3.92468 22.3827 3.47081 -2.38746 -5.8863 1.82472 68.4464 -0.277004 -1.33551 104.254 14.4498 11.0456 -2.9694e-006 1.66074e-006 1.10829e-005 16.2036 2.94018 -0.491204 1.10418e-006 2.8541e-006 -2.99998 8.02904 -4.95145 0.697702 -64.6425 -3.56718 2.69908 -108.588 12.2091 3.37655 -3.74423e-006 -6.75786e-007 1.32066e-006 -17.5522 15.6055 2.62057 1.96417e-006 -6.10315e-006 2.99999 -8.02909 -4.95141 -0.697703 178.556 -0.348969 -0.316986 180 7.01552e-015 178.947 177.894 4.8482 179.785 -1.49533e-006 -1.62503e-006 0.0395764 -18.3599 67.631 19.2232 8.13692 25.2389 -3.49343 -177.316 -0.880244 2.40834 4.54188e-006 -4.6773e-006 -1.11067 -2.06399 -7.70441 0.175325 -2.32599e-006 -3.99697e-006 -0.133377 19.5803 69.1206 -20.5067 -8.15562 25.668 2.89363 
50.3017 100.619 11.7386 -0.352182 -1.70139 -0.759435 0.313022 -2.08839 -0.162824 0.61861 -0.184042 -0.35579 0.623025 1.46096 -0.366196 -3.91299 22.3928 3.48167 -2.42564 -5.87629 1.83307 68.4419 -0.264358 -1.32869 104.246 14.4095 11.0467 -2.9694e-006 1.66074e-006 1.10829e-005 16.205 3.03841 -0.508212 1.10418e-006 2.8541e-006 -2.99998 8.02904 -4.95145 0.697702 -64.657 -3.56581 2.69945 -108.587 12.2334 3.32874 -3.74423e-006 -6.75786e-007 1.32066e-006 -17.5238 15.5205 2.60381 1.96417e-006 -6.10315e-006 2.99999 -8.02909 -4.95141 -0.697703 178.553 -0.339849 -0.314514 180 7.01552e-015 178.947 177.892 4.85299 179.785 -1.49533e-006 -1.62503e-006 0.0395764 -18.3586 67.6294 19.2218 8.13692 25.2389 -3.49343 -177.324 -0.881896 2.41876 4.54188e-006 -4.6773e-006 -1.11067 -2.05525 -7.70265 0.176549 -2.32599e-006 -3.99697e-006 -0.133328 19.5835 69.124 -20.5102 -8.1556 25.6676 2.89347 
50.3088 100.621 11.7461 -0.352846 -1.69751 -0.779322 0.313284 -2.09006 -0.163362 0.619147 -0.18577 -0.358455 0.623579 1.45924 -0.368855 -3.90239 22.4023 3.49272 -2.46197 -5.86628 1.84157 68.4382 -0.252192 -1.3222 104.237 14.368 11.0459 -2.9694e-006 1.66074e-006 1.10829e-005 16.2079 3.14021 -0.5258 1.10418e-006 2.8541e-006 -2.99998 8.02904 -4.95145 0.697702 -64.6709 -3.5645 2.6998 -108.587 12.2581 3.28023 -3.74423e-006 -6.75786e-007 1.32066e-006 -17.4947 15.4344 2.58688 1.96417e-006 -6.10315e-006 2.99999 -8.02909 -4.95141 -0.697703 178.549 -0.33063 -0.31222 180 7.01552e-015 178.947 177.889 4.85785 179.785 -1.49533e-006 -1.62503e-006 0.0395764 -18.3572 67.6277 19.2203 8.13692 25.2389 -3.49343 -177.331 -0.883267 2.42864 4.54188e-006 -4.6773e-006 -1.11067 -2.04688 -7.70149 0.177707 -2.32599e-006 -3.99697e-006 -0.133298 19.587 69.1276 -20.5139 -8.15557 25.6673 2.8933 
